<svg width="31" height="29" viewBox="0 0 31 29" fill="none" xmlns="http://www.w3.org/2000/svg">
<circle cx="10.4434" cy="14.7478" r="2.64138" stroke="url(#paint0_linear_6_939)" stroke-width="1.76092"/>
<circle cx="20.0177" cy="14.7478" r="2.64138" stroke="url(#paint1_linear_6_939)" stroke-width="1.76092"/>
<path d="M7.16235 8.31594C10.1339 6.38994 17.5958 3.69353 23.671 8.31594" stroke="url(#paint2_linear_6_939)" stroke-width="1.76092" stroke-linecap="round" stroke-linejoin="round"/>
<path d="M5.51233 19.5319C8.42885 22.1182 16.474 25.7391 25.3227 19.5319" stroke="url(#paint3_linear_6_939)" stroke-width="1.76092" stroke-linecap="round" stroke-linejoin="round"/>
<path d="M12.4453 5.66797L10.6294 3.52185L4.68626 5.66797C3.20048 7.75906 0.460052 13.6912 1.38453 20.6908C1.9899 21.9565 4.1251 24.5208 7.82297 24.6529L9.14365 22.6718" stroke="url(#paint4_linear_6_939)" stroke-width="1.76092" stroke-linejoin="round"/>
<path d="M18.0371 5.66797L19.8531 3.52185L25.7962 5.66797C27.2819 7.75906 30.0224 13.6912 29.0979 20.6908C28.4925 21.9565 26.3573 24.5208 22.6595 24.6529L21.3388 22.6718" stroke="url(#paint5_linear_6_939)" stroke-width="1.76092" stroke-linejoin="round"/>
<defs>
<linearGradient id="paint0_linear_6_939" x1="10.4434" y1="12.1064" x2="10.4434" y2="17.3892" gradientUnits="userSpaceOnUse">
<stop offset="0.473958" stop-color="#9FC83B"/>
<stop offset="1" stop-color="#008D31"/>
</linearGradient>
<linearGradient id="paint1_linear_6_939" x1="20.0177" y1="12.1064" x2="20.0177" y2="17.3892" gradientUnits="userSpaceOnUse">
<stop offset="0.473958" stop-color="#9FC83B"/>
<stop offset="1" stop-color="#008D31"/>
</linearGradient>
<linearGradient id="paint2_linear_6_939" x1="15.4167" y1="5.76367" x2="15.4167" y2="8.31594" gradientUnits="userSpaceOnUse">
<stop offset="0.473958" stop-color="#9FC83B"/>
<stop offset="1" stop-color="#008D31"/>
</linearGradient>
<linearGradient id="paint3_linear_6_939" x1="15.4175" y1="19.5319" x2="15.4175" y2="22.9592" gradientUnits="userSpaceOnUse">
<stop offset="0.473958" stop-color="#9FC83B"/>
<stop offset="1" stop-color="#008D31"/>
</linearGradient>
<linearGradient id="paint4_linear_6_939" x1="6.82177" y1="3.52185" x2="6.82177" y2="24.6529" gradientUnits="userSpaceOnUse">
<stop offset="0.473958" stop-color="#9FC83B"/>
<stop offset="1" stop-color="#008D31"/>
</linearGradient>
<linearGradient id="paint5_linear_6_939" x1="23.6607" y1="3.52185" x2="23.6607" y2="24.6529" gradientUnits="userSpaceOnUse">
<stop offset="0.473958" stop-color="#9FC83B"/>
<stop offset="1" stop-color="#008D31"/>
</linearGradient>
</defs>
</svg>
