<svg width="29" height="29" viewBox="0 0 29 29" fill="none" xmlns="http://www.w3.org/2000/svg">
<path d="M14.3057 9.99236C9.89241 10.213 5.99367 7.36342 4.2894 5.61929C4.13373 5.45998 3.85967 5.51645 3.78647 5.72682C1.06968 13.5346 5.58705 17.8944 8.80967 19.4278C9.06095 19.5474 9.05155 19.9312 8.78872 20.0226L3.53361 21.8505C3.27362 21.9409 3.28157 22.3089 3.54034 22.4027C20.6327 28.6014 24.5543 15.9958 24.36 8.80789L25.8942 6.25096C26.0058 6.06493 25.8858 5.82602 25.6699 5.80455L23.1772 5.55663C16.3166 1.53491 14.4043 6.83806 14.3057 9.99236Z" stroke="url(#paint0_linear_6_940)" stroke-width="1.76092"/>
<defs>
<linearGradient id="paint0_linear_6_940" x1="14.4536" y1="4.1088" x2="14.4536" y2="24.0659" gradientUnits="userSpaceOnUse">
<stop offset="0.473958" stop-color="#9FC83B"/>
<stop offset="1" stop-color="#008D31"/>
</linearGradient>
</defs>
</svg>
