<svg width="42" height="42" viewBox="0 0 42 42" fill="none" xmlns="http://www.w3.org/2000/svg">
<path d="M20.7839 15.4306C14.3348 15.753 8.6377 11.589 6.14729 9.04033C5.91981 8.80753 5.51933 8.89004 5.41237 9.19746C1.44238 20.6068 8.04352 26.9777 12.7527 29.2185C13.1199 29.3932 13.1061 29.954 12.722 30.0875L5.04287 32.7586C4.66295 32.8907 4.67456 33.4284 5.0527 33.5656C30.0294 42.6236 35.7599 24.2033 35.4761 13.6998L37.7179 9.96336C37.881 9.69152 37.7056 9.34241 37.3901 9.31104L33.7476 8.94876C23.7223 3.0719 20.928 10.8213 20.7839 15.4306Z" stroke="url(#paint0_linear_91_220)" stroke-width="2.57319"/>
<defs>
<linearGradient id="paint0_linear_91_220" x1="21" y1="6.83307" x2="21" y2="35.9959" gradientUnits="userSpaceOnUse">
<stop stop-color="#AA0F08"/>
<stop offset="0.552083" stop-color="#5C0101"/>
</linearGradient>
</defs>
</svg>
